<?xml version="1.0" encoding="utf-8"?>
<!-- Generator: Adobe Illustrator 16.0.0, SVG Export Plug-In . SVG Version: 6.00 Build 0)  -->
<!DOCTYPE svg PUBLIC "-//W3C//DTD SVG 1.1//EN" "http://www.w3.org/Graphics/SVG/1.1/DTD/svg11.dtd">
<svg version="1.1" xmlns="http://www.w3.org/2000/svg" xmlns:xlink="http://www.w3.org/1999/xlink" x="0px" y="0px" width="540px"
	 height="180px" viewBox="0 0 540 180" enable-background="new 0 0 540 180" xml:space="preserve">
<g id="Layer_2" display="none">
</g>
<g id="Layer_1">
	<g>
		<path fill="#003D79" d="M269.79,115.463c-45.511,0-82.413-19.541-82.413-43.642c0-24.103,36.901-43.645,82.413-43.645
			c45.516,0,82.41,19.542,82.41,43.645C352.2,95.922,315.306,115.463,269.79,115.463L269.79,115.463z M269.79,24.907
			c-54.678,0-99.007,21.003-99.007,46.914c0,25.91,44.329,46.914,99.007,46.914c54.682,0,99.007-21.004,99.007-46.914
			C368.797,45.91,324.472,24.907,269.79,24.907L269.79,24.907z"/>
		<path fill="#003D79" d="M27.583,147.354c0,0.711,0.025,0.761,0.711,0.761h1.753c1.321,0,1.601-0.177,1.881-1.396l0.127-0.636
			c0.178-0.205,0.812-0.205,0.939,0.027c-0.051,0.811-0.076,1.725-0.076,2.692c0,0.965,0.025,1.879,0.076,2.692
			c-0.127,0.229-0.762,0.254-0.939,0.026l-0.127-0.637c-0.28-1.22-0.56-1.423-1.881-1.423h-1.753c-0.686,0-0.711,0.027-0.711,0.787
			v3.024c0,1.171,0.102,1.981,0.406,2.414c0.33,0.457,0.812,0.66,2.668,0.66c2.21,0,3.074-0.076,4.472-2.946
			c0.203-0.281,0.839-0.179,0.94,0.127c-0.102,1.321-0.712,3.379-1.067,4.065c-0.661-0.024-1.626-0.052-2.668-0.052
			c-1.017-0.024-2.16-0.024-3.201-0.024h-3.304c-1.22,0-2.465,0.024-4.37,0.076c-0.203-0.152-0.203-0.765,0-0.892l1.194-0.176
			c1.144-0.154,1.296-0.33,1.296-2.669v-9.477c0-2.312-0.152-2.49-1.296-2.693l-0.636-0.127c-0.229-0.153-0.203-0.737,0.051-0.89
			c0.61,0.027,1.22,0.052,1.83,0.052c0.609,0.024,1.22,0.024,1.829,0.024h5.387c1.626,0,3.074-0.024,3.405-0.076
			c0.025,0.406,0.203,2.236,0.33,3.939c-0.102,0.278-0.687,0.329-0.94,0.1c-0.279-0.887-0.635-1.651-0.966-2.008
			c-0.482-0.481-1.244-0.787-2.489-0.787h-2.033c-0.838,0-0.838,0.052-0.838,0.992V147.354L27.583,147.354z"/>
	</g>
	<path fill="#003D79" d="M44.828,154.069c0,1.045,0.038,1.733,0.381,2.133c0.344,0.381,0.896,0.551,1.582,0.551
		c3.297,0,4.421-2.932,4.421-5.524c0-3.43-1.811-5.469-5.26-5.469c-0.514,0-0.876,0.096-0.99,0.248
		c-0.114,0.151-0.134,0.514-0.134,1.106V154.069L44.828,154.069z M42.104,148.028c0-1.812-0.038-2.173-0.915-2.269l-0.362-0.039
		c-0.19-0.097-0.19-0.647,0.038-0.666c1.601-0.097,3.088-0.172,5.107-0.172c1.562,0,3.125,0.151,4.44,0.629
		c2.496,0.896,3.868,3.146,3.868,5.524c0,2.556-1.22,4.615-3.411,5.701c-1.296,0.646-2.858,0.894-4.821,0.894
		c-0.438,0-0.915-0.037-1.353-0.058c-0.42-0.039-0.839-0.056-1.182-0.056c-0.915,0-1.887,0.017-2.973,0.056
		c-0.153-0.115-0.153-0.572,0-0.666l0.591-0.095c0.857-0.153,0.972-0.286,0.972-2.039V148.028L42.104,148.028z"/>
	<path fill="#003D79" d="M59.979,147.684c0-1.772-0.114-1.903-0.972-2.06l-0.477-0.092c-0.152-0.117-0.172-0.535,0.038-0.649
		c0.914,0.036,1.867,0.057,2.782,0.057c0.934,0,1.867-0.021,2.782-0.057c0.152,0.114,0.152,0.532,0,0.649l-0.458,0.075
		c-0.857,0.173-0.972,0.304-0.972,2.076v4.401c0,2.232,0.248,4.688,3.145,4.688c2.439,0,3.183-2.135,3.183-4.743v-2.308
		c0-1.543-0.076-2.992-0.286-3.485c-0.172-0.402-0.591-0.517-1.105-0.613l-0.515-0.092c-0.152-0.154-0.114-0.535,0-0.649
		c1.029,0.036,1.772,0.057,2.554,0.057c0.705,0,1.41-0.021,2.135-0.057c0.114,0.114,0.152,0.495,0,0.649l-0.344,0.075
		c-0.495,0.113-0.857,0.228-1.028,0.63c-0.21,0.493-0.286,1.942-0.286,3.485v2.135c0,1.791-0.172,3.429-1.22,4.591
		c-0.838,0.897-2.229,1.375-3.773,1.375c-1.448,0-2.744-0.229-3.772-1.07c-0.991-0.817-1.41-2.227-1.41-4.305V147.684
		L59.979,147.684z"/>
	<path fill="#003D79" d="M87.134,145.131c0,0.342,0.057,1.866,0.229,2.973c-0.076,0.228-0.591,0.304-0.725,0.134
		c-0.515-1.773-1.733-2.726-3.582-2.726c-2.115,0-4.383,1.812-4.383,5.603c0,3.793,2.191,5.832,4.478,5.832
		c2.306,0,3.373-1.66,3.888-2.955c0.152-0.151,0.61-0.095,0.725,0.133c-0.134,1.41-0.458,2.554-0.725,2.992
		c-1.029,0.287-2.382,0.707-3.868,0.707c-1.868,0-3.773-0.44-5.126-1.451c-1.372-1.047-2.421-2.629-2.421-4.991
		c0-2.324,0.991-3.964,2.307-5.052c1.353-1.123,3.296-1.694,5.278-1.694C85.151,144.635,86.562,145.092,87.134,145.131
		L87.134,145.131z"/>
	<path fill="#003D79" d="M96.929,152.2c0.438,0,0.553-0.058,0.381-0.552l-0.495-1.545c-0.268-0.819-0.515-1.601-0.687-2
		c-0.19,0.42-0.495,1.22-0.781,2.095l-0.477,1.43c-0.19,0.515-0.076,0.572,0.4,0.572H96.929L96.929,152.2z M94.89,153.21
		c-0.458,0-0.515,0.019-0.629,0.382l-0.705,2.211c-0.114,0.381-0.134,0.532-0.134,0.687c0,0.112,0.152,0.228,0.687,0.323
		l0.571,0.095c0.114,0.133,0.152,0.571-0.038,0.666c-0.667-0.039-1.429-0.039-2.229-0.056c-0.647,0-1.086,0.056-1.963,0.056
		c-0.21-0.115-0.19-0.513-0.057-0.666l0.514-0.058c0.458-0.058,0.858-0.209,1.163-0.953c0.343-0.762,0.667-1.676,1.182-3.049
		l1.715-4.649c0.457-1.201,0.8-1.869,0.743-2.418c0.915-0.211,1.62-1.146,1.658-1.146c0.247,0,0.361,0.096,0.438,0.381
		c0.152,0.554,0.382,1.258,0.857,2.61l2.592,7.472c0.4,1.142,0.572,1.562,1.277,1.694l0.724,0.115
		c0.114,0.094,0.152,0.551-0.019,0.666c-0.915-0.039-1.944-0.056-2.935-0.056c-0.953,0-1.696,0.017-2.573,0.056
		c-0.209-0.115-0.247-0.513-0.038-0.666l0.61-0.095c0.438-0.075,0.515-0.211,0.515-0.323c0-0.134-0.134-0.593-0.362-1.298
		l-0.515-1.639c-0.096-0.306-0.248-0.343-0.915-0.343H94.89L94.89,153.21z"/>
	<path fill="#003D79" d="M109.128,146.368c0-0.457,0-0.552-0.457-0.552h-1.182c-1.392,0-1.792,0.761-2.363,2.154
		c-0.229,0.112-0.591,0.075-0.705-0.172c0.4-1.313,0.495-2.496,0.629-3.24c0.076-0.058,0.172-0.097,0.267-0.097
		c0.096,0,0.19,0.021,0.267,0.076c0.096,0.326,0.152,0.401,1.602,0.401h7.089c1.258,0,1.543-0.021,1.715-0.418
		c0.076-0.039,0.133-0.06,0.248-0.06c0.114,0,0.247,0.076,0.285,0.136c-0.19,0.646-0.324,2.19-0.285,3.276
		c-0.096,0.172-0.61,0.209-0.705,0.058c-0.324-1.22-0.591-2.115-2.021-2.115h-1.144c-0.457,0-0.515,0.056-0.515,0.552v8.405
		c0,1.771,0.114,1.904,0.973,2.039l0.762,0.095c0.134,0.114,0.134,0.551,0,0.666c-1.238-0.039-2.191-0.056-3.049-0.056
		c-0.915,0-1.905,0.017-3.239,0.056c-0.152-0.115-0.152-0.552,0-0.666l0.857-0.095c0.857-0.135,0.972-0.269,0.972-2.039V146.368
		L109.128,146.368z"/>
	<path fill="#003D79" d="M124.315,154.735c0,1.791,0.114,1.924,0.991,2.077l0.533,0.095c0.153,0.114,0.134,0.551-0.018,0.666
		c-1.03-0.039-1.963-0.056-2.859-0.056c-0.915,0-1.868,0.017-2.896,0.056c-0.152-0.115-0.152-0.552,0-0.666l0.533-0.095
		c0.877-0.153,0.991-0.286,0.991-2.077v-7.013c0-1.791-0.114-1.927-0.991-2.078l-0.533-0.096c-0.152-0.113-0.152-0.552,0-0.666
		c1.028,0.036,1.981,0.057,2.896,0.057c0.896,0,1.849-0.021,2.877-0.057c0.153,0.114,0.153,0.553,0,0.666l-0.533,0.096
		c-0.877,0.151-0.991,0.287-0.991,2.078V154.735L124.315,154.735z"/>
	<path fill="#003D79" d="M136.76,145.512c-2.345,0-3.602,2.19-3.602,5.373c0,2.325,0.82,6.062,3.925,6.062
		c2.497,0,3.469-2.441,3.469-5.527C140.552,148.159,139.122,145.512,136.76,145.512L136.76,145.512z M143.601,151.171
		c0,4.154-2.782,6.652-6.88,6.652c-3.83,0-6.612-2.517-6.612-6.5c0-3.772,2.82-6.688,6.803-6.688
		C140.875,144.635,143.601,147.303,143.601,151.171L143.601,151.171z"/>
	<path fill="#003D79" d="M159.646,154.278c0,1.237,0,2.438,0.039,3.067c-0.134,0.228-0.667,0.437-1.125,0.437
		c-0.019,0-0.648-0.97-1.543-2.076l-4.402-5.45c-1.086-1.371-1.735-2.152-2.078-2.437c-0.095,0.188-0.095,0.512-0.095,1.217v3.699
		c0,1.543,0.076,2.971,0.286,3.485c0.172,0.399,0.61,0.517,1.105,0.608l0.534,0.078c0.152,0.153,0.114,0.551,0,0.666
		c-1.029-0.039-1.791-0.056-2.554-0.056c-0.705,0-1.41,0.017-2.134,0.056c-0.114-0.115-0.152-0.513,0-0.666l0.324-0.058
		c0.515-0.112,0.876-0.229,1.048-0.629c0.191-0.515,0.267-1.942,0.267-3.485v-4.841c0-1.049,0-1.354-0.134-1.621
		c-0.133-0.325-0.419-0.514-1.086-0.649l-0.533-0.075c-0.134-0.152-0.114-0.609,0.076-0.666c0.895,0.036,1.849,0.057,2.63,0.057
		c0.647,0,1.2-0.021,1.6-0.057c0.191,0.856,1.429,2.307,3.145,4.346l1.601,1.886c0.857,0.991,1.39,1.657,1.829,2.096
		c0.076-0.19,0.076-0.514,0.076-0.856v-2.631c0-1.543-0.076-2.974-0.286-3.485c-0.171-0.402-0.59-0.517-1.105-0.613l-0.514-0.075
		c-0.153-0.152-0.115-0.552,0-0.666c1.029,0.036,1.772,0.057,2.553,0.057c0.705,0,1.391-0.021,2.134-0.057
		c0.114,0.114,0.152,0.514,0,0.666l-0.343,0.059c-0.495,0.113-0.857,0.228-1.029,0.63c-0.209,0.512-0.286,1.942-0.286,3.485V154.278
		L159.646,154.278z"/>
	<path fill="#003D79" d="M170.413,152.2c0.438,0,0.552-0.058,0.381-0.552l-0.495-1.545c-0.267-0.819-0.514-1.601-0.686-2
		c-0.191,0.42-0.495,1.22-0.782,2.095l-0.476,1.43c-0.191,0.515-0.076,0.572,0.4,0.572H170.413L170.413,152.2z M168.374,153.21
		c-0.458,0-0.514,0.019-0.629,0.382l-0.705,2.211c-0.114,0.381-0.133,0.532-0.133,0.687c0,0.112,0.152,0.228,0.686,0.323
		l0.571,0.095c0.115,0.133,0.153,0.571-0.038,0.666c-0.667-0.039-1.429-0.039-2.229-0.056c-0.649,0-1.086,0.056-1.963,0.056
		c-0.21-0.115-0.19-0.513-0.058-0.666l0.515-0.058c0.458-0.058,0.857-0.209,1.163-0.953c0.343-0.762,0.667-1.676,1.181-3.049
		l1.716-4.649c0.457-1.201,0.799-1.869,0.743-2.418c0.914-0.211,1.619-1.146,1.657-1.146c0.248,0,0.362,0.096,0.438,0.381
		c0.153,0.554,0.381,1.258,0.858,2.61l2.592,7.472c0.4,1.142,0.572,1.562,1.277,1.694l0.724,0.115
		c0.114,0.094,0.152,0.551-0.019,0.666c-0.915-0.039-1.944-0.056-2.935-0.056c-0.953,0-1.696,0.017-2.573,0.056
		c-0.209-0.115-0.248-0.513-0.038-0.666l0.611-0.095c0.437-0.075,0.513-0.211,0.513-0.323c0-0.134-0.133-0.593-0.361-1.298
		l-0.515-1.639c-0.095-0.306-0.248-0.343-0.915-0.343H168.374L168.374,153.21z"/>
	<path fill="#003D79" d="M183.98,154.354c0,0.896,0.076,1.507,0.324,1.81c0.248,0.326,0.591,0.478,1.981,0.478
		c1.735,0,2.269-0.058,3.393-2.269c0.152-0.19,0.591-0.114,0.724,0.115c-0.095,0.991-0.552,2.573-0.82,3.086
		c-0.495-0.019-1.219-0.039-2.001-0.039c-0.761-0.017-1.619-0.017-2.4-0.017h-2.554c-0.877,0-1.829,0.017-3.01,0.056
		c-0.172-0.115-0.21-0.552-0.058-0.666l0.725-0.095c0.857-0.135,0.971-0.269,0.971-2.039v-7.09c0-1.772-0.114-1.903-0.971-2.06
		l-0.553-0.075c-0.191-0.113-0.191-0.552,0.038-0.666c0.991,0.036,1.943,0.057,2.858,0.057s1.867-0.021,2.821-0.057
		c0.152,0.114,0.152,0.553,0,0.666l-0.496,0.075c-0.858,0.156-0.972,0.287-0.972,2.06V154.354L183.98,154.354z"/>
	<path fill="#003D79" d="M209.885,148.09c0,0.891,0.076,0.967,1.575,0.967c0.915,0,1.449-0.229,1.931-0.713
		c0.433-0.433,0.915-1.244,0.915-2.744c0-2.285-1.347-3.76-3.328-3.76c-1.042,0-1.042,0.075-1.093,1.295V148.09L209.885,148.09z
		 M206.404,144.864c0-2.541-0.051-2.822-1.118-2.974l-0.686-0.103c-0.254-0.127-0.254-0.76,0.051-0.887
		c1.905-0.128,3.887-0.23,6.302-0.23c2.159,0,4.014,0.33,4.979,0.914c1.474,0.863,2.236,2.136,2.236,3.761
		c0,2.262-1.524,3.228-2.693,3.812c-0.254,0.127-0.254,0.28-0.127,0.56c1.677,3.403,2.719,5.312,3.938,6.353
		c0.661,0.532,1.322,0.684,1.703,0.711c0.228,0.127,0.228,0.508,0.101,0.661c-0.406,0.177-1.22,0.228-2.007,0.228
		c-2.338,0-3.811-0.84-4.929-2.668c-0.814-1.346-1.398-2.592-1.982-3.938c-0.305-0.687-0.712-0.889-1.346-0.889
		c-0.89,0-0.941,0.051-0.941,0.559v3.125c0,2.339,0.152,2.515,1.296,2.718l0.686,0.127c0.177,0.127,0.177,0.739,0,0.892
		c-1.347-0.052-2.516-0.076-3.735-0.076c-1.27,0-2.388,0.024-3.71,0.076c-0.203-0.152-0.203-0.765,0-0.892l0.686-0.127
		c1.143-0.203,1.296-0.379,1.296-2.718V144.864L206.404,144.864z"/>
	<path fill="#003D79" d="M229.086,149.895c0,0.533,0.019,0.572,0.533,0.572h1.316c0.99,0,1.2-0.136,1.41-1.05l0.095-0.475
		c0.134-0.154,0.61-0.154,0.705,0.018c-0.038,0.611-0.057,1.296-0.057,2.021c0,0.724,0.019,1.41,0.057,2.019
		c-0.095,0.172-0.571,0.193-0.705,0.021l-0.095-0.478c-0.21-0.914-0.42-1.065-1.41-1.065h-1.316c-0.514,0-0.533,0.019-0.533,0.591
		v2.266c0,0.877,0.076,1.488,0.305,1.812c0.248,0.345,0.61,0.496,2.001,0.496c1.658,0,2.306-0.058,3.353-2.211
		c0.154-0.209,0.629-0.134,0.706,0.097c-0.077,0.989-0.534,2.534-0.8,3.047c-0.495-0.019-1.22-0.039-2.001-0.039
		c-0.763-0.017-1.62-0.017-2.402-0.017h-2.477c-0.914,0-1.848,0.017-3.277,0.056c-0.153-0.115-0.153-0.572,0-0.666l0.895-0.134
		c0.857-0.114,0.972-0.247,0.972-2v-7.11c0-1.731-0.115-1.867-0.972-2.019l-0.477-0.096c-0.17-0.113-0.152-0.552,0.039-0.666
		c0.458,0.021,0.915,0.036,1.372,0.036c0.458,0.021,0.915,0.021,1.372,0.021h4.04c1.219,0,2.305-0.021,2.553-0.057
		c0.02,0.305,0.153,1.678,0.248,2.952c-0.076,0.211-0.514,0.248-0.705,0.076c-0.21-0.666-0.476-1.237-0.724-1.504
		c-0.362-0.363-0.934-0.591-1.867-0.591h-1.525c-0.629,0-0.629,0.039-0.629,0.744V149.895L229.086,149.895z"/>
	<path fill="#003D79" d="M242.636,157.823c-1.753,0-2.84-0.498-3.239-0.726c-0.362-0.42-0.611-1.791-0.611-3.088
		c0.134-0.246,0.573-0.267,0.725-0.058c0.381,1.239,1.657,2.994,3.277,2.994c1.411,0,2.059-0.974,2.059-1.925
		c0-1.545-1.448-2.459-2.592-3.032c-1.372-0.685-2.858-1.828-2.878-3.713c0-2.156,1.659-3.642,4.421-3.642
		c0.629,0,1.41,0.075,2.173,0.305c0.248,0.076,0.419,0.115,0.648,0.152c0.152,0.42,0.343,1.448,0.343,2.728
		c-0.095,0.227-0.572,0.245-0.743,0.055c-0.324-0.971-1.143-2.362-2.516-2.362c-1.257,0-1.944,0.817-1.944,1.771
		c0,0.877,0.781,1.678,1.735,2.174l1.257,0.666c1.182,0.629,2.687,1.735,2.687,3.83
		C247.438,156.297,245.514,157.823,242.636,157.823L242.636,157.823z"/>
	<path fill="#003D79" d="M258.262,145.512c-2.344,0-3.601,2.19-3.601,5.373c0,2.325,0.819,6.062,3.925,6.062
		c2.496,0,3.469-2.441,3.469-5.527C262.055,148.159,260.625,145.512,258.262,145.512L258.262,145.512z M265.104,151.171
		c0,4.154-2.781,6.652-6.88,6.652c-3.83,0-6.612-2.517-6.612-6.5c0-3.772,2.82-6.688,6.802-6.688
		C262.378,144.635,265.104,147.303,265.104,151.171L265.104,151.171z"/>
	<path fill="#003D79" d="M270.801,147.684c0-1.772-0.114-1.903-0.972-2.06l-0.477-0.092c-0.152-0.117-0.171-0.535,0.038-0.649
		c0.915,0.036,1.867,0.057,2.782,0.057c0.934,0,1.867-0.021,2.781-0.057c0.153,0.114,0.153,0.532,0,0.649l-0.456,0.075
		c-0.857,0.173-0.972,0.304-0.972,2.076v4.401c0,2.232,0.247,4.688,3.144,4.688c2.439,0,3.183-2.135,3.183-4.743v-2.308
		c0-1.543-0.076-2.992-0.286-3.485c-0.171-0.402-0.591-0.517-1.104-0.613l-0.515-0.092c-0.152-0.154-0.114-0.535,0-0.649
		c1.028,0.036,1.771,0.057,2.554,0.057c0.705,0,1.409-0.021,2.134-0.057c0.114,0.114,0.151,0.495,0,0.649l-0.343,0.075
		c-0.495,0.113-0.857,0.228-1.029,0.63c-0.21,0.493-0.286,1.942-0.286,3.485v2.135c0,1.791-0.171,3.429-1.219,4.591
		c-0.839,0.897-2.23,1.375-3.773,1.375c-1.449,0-2.744-0.229-3.773-1.07c-0.991-0.817-1.41-2.227-1.41-4.305V147.684
		L270.801,147.684z"/>
	<path fill="#003D79" d="M290.467,150.448c0,0.666,0.058,0.723,1.182,0.723c0.686,0,1.086-0.172,1.448-0.532
		c0.324-0.324,0.687-0.937,0.687-2.06c0-1.715-1.011-2.819-2.498-2.819c-0.78,0-0.78,0.057-0.818,0.971V150.448L290.467,150.448z
		 M287.856,148.028c0-1.908-0.038-2.117-0.839-2.232l-0.515-0.075c-0.19-0.097-0.19-0.569,0.038-0.666
		c1.43-0.097,2.916-0.172,4.727-0.172c1.619,0,3.011,0.248,3.734,0.687c1.105,0.647,1.678,1.6,1.678,2.819
		c0,1.696-1.145,2.42-2.021,2.858c-0.19,0.097-0.19,0.209-0.095,0.418c1.258,2.556,2.039,3.986,2.953,4.767
		c0.496,0.397,0.991,0.515,1.277,0.533c0.171,0.096,0.171,0.381,0.075,0.493c-0.304,0.136-0.914,0.173-1.505,0.173
		c-1.753,0-2.858-0.63-3.697-2.001c-0.609-1.01-1.049-1.942-1.486-2.952c-0.229-0.517-0.533-0.668-1.01-0.668
		c-0.667,0-0.705,0.039-0.705,0.42v2.344c0,1.753,0.114,1.886,0.972,2.039l0.514,0.095c0.135,0.094,0.135,0.551,0,0.666
		c-1.009-0.039-1.886-0.056-2.8-0.056c-0.953,0-1.792,0.017-2.783,0.056c-0.151-0.115-0.151-0.572,0-0.666l0.516-0.095
		c0.857-0.153,0.972-0.286,0.972-2.039V148.028L287.856,148.028z"/>
	<path fill="#003D79" d="M312.9,145.131c0,0.342,0.057,1.866,0.229,2.973c-0.076,0.228-0.591,0.304-0.725,0.134
		c-0.514-1.773-1.733-2.726-3.582-2.726c-2.115,0-4.383,1.812-4.383,5.603c0,3.793,2.191,5.832,4.478,5.832
		c2.307,0,3.373-1.66,3.888-2.955c0.152-0.151,0.61-0.095,0.725,0.133c-0.134,1.41-0.458,2.554-0.725,2.992
		c-1.029,0.287-2.382,0.707-3.868,0.707c-1.867,0-3.773-0.44-5.126-1.451c-1.372-1.047-2.42-2.629-2.42-4.991
		c0-2.324,0.99-3.964,2.306-5.052c1.353-1.123,3.297-1.694,5.278-1.694C310.918,144.635,312.327,145.092,312.9,145.131
		L312.9,145.131z"/>
	<path fill="#003D79" d="M321.514,149.895c0,0.533,0.02,0.572,0.533,0.572h1.315c0.991,0,1.2-0.136,1.41-1.05l0.095-0.475
		c0.134-0.154,0.61-0.154,0.705,0.018c-0.038,0.611-0.057,1.296-0.057,2.021c0,0.724,0.019,1.41,0.057,2.019
		c-0.095,0.172-0.571,0.193-0.705,0.021l-0.095-0.478c-0.21-0.914-0.419-1.065-1.41-1.065h-1.315c-0.514,0-0.533,0.019-0.533,0.591
		v2.266c0,0.877,0.076,1.488,0.305,1.812c0.248,0.345,0.61,0.496,2.001,0.496c1.658,0,2.306-0.058,3.354-2.211
		c0.152-0.209,0.629-0.134,0.705,0.097c-0.076,0.989-0.534,2.534-0.802,3.047c-0.494-0.019-1.219-0.039-2-0.039
		c-0.762-0.017-1.62-0.017-2.401-0.017h-2.477c-0.915,0-1.849,0.017-3.278,0.056c-0.152-0.115-0.152-0.572,0-0.666l0.896-0.134
		c0.858-0.114,0.973-0.247,0.973-2v-7.11c0-1.731-0.114-1.867-0.973-2.019l-0.476-0.096c-0.172-0.113-0.153-0.552,0.038-0.666
		c0.457,0.021,0.914,0.036,1.372,0.036c0.457,0.021,0.914,0.021,1.372,0.021h4.038c1.221,0,2.308-0.021,2.555-0.057
		c0.02,0.305,0.152,1.678,0.248,2.952c-0.076,0.211-0.515,0.248-0.705,0.076c-0.21-0.666-0.477-1.237-0.725-1.504
		c-0.361-0.363-0.934-0.591-1.867-0.591h-1.524c-0.629,0-0.629,0.039-0.629,0.744V149.895L321.514,149.895z"/>
	<path fill="#003D79" d="M346.909,157.924c-2.338,0-3.786-0.66-4.319-0.966c-0.482-0.56-0.813-2.387-0.813-4.116
		c0.179-0.33,0.762-0.354,0.966-0.076c0.508,1.651,2.21,3.987,4.37,3.987c1.881,0,2.744-1.295,2.744-2.563
		c0-2.059-1.931-3.28-3.455-4.041c-1.83-0.913-3.812-2.44-3.837-4.954c0-2.871,2.211-4.854,5.895-4.854
		c0.839,0,1.881,0.104,2.896,0.407c0.331,0.103,0.56,0.154,0.864,0.203c0.203,0.56,0.457,1.931,0.457,3.633
		c-0.127,0.306-0.762,0.33-0.99,0.076c-0.433-1.295-1.525-3.149-3.354-3.149c-1.677,0-2.592,1.092-2.592,2.362
		c0,1.168,1.042,2.238,2.312,2.897l1.677,0.888c1.575,0.838,3.583,2.313,3.583,5.108
		C353.312,155.891,350.745,157.924,346.909,157.924L346.909,157.924z"/>
	<path fill="#003D79" d="M364.854,154.773c0,1.771,0.114,1.904,0.972,2.039l0.762,0.095c0.134,0.114,0.134,0.551,0,0.666
		c-1.238-0.039-2.172-0.056-3.087-0.056s-1.867,0.017-2.992,0.056c-0.152-0.115-0.152-0.552,0-0.666l0.648-0.095
		c0.857-0.135,0.972-0.269,0.972-2.039v-0.952c0-0.955-0.019-1.259-0.515-2.269l-2.268-4.688c-0.381-0.781-0.553-1.068-1.22-1.201
		l-0.647-0.114c-0.172-0.152-0.152-0.609,0.076-0.666c0.857,0.036,1.562,0.057,2.687,0.057c1.163,0,2.135-0.021,2.782-0.057
		c0.172,0.075,0.21,0.514,0.038,0.666l-0.647,0.153c-0.343,0.078-0.458,0.153-0.458,0.17c0,0.154,0.096,0.44,0.495,1.334
		l0.896,2.039c0.286,0.629,0.646,1.394,0.877,1.869c0.552-0.935,1.086-2.041,1.601-3.011c0.724-1.354,0.99-1.983,0.99-2.211
		c0-0.112-0.19-0.19-0.647-0.269l-0.438-0.075c-0.153-0.095-0.171-0.57,0.02-0.666c0.762,0.036,1.448,0.057,2.134,0.057
		c0.725,0,1.315-0.021,1.868-0.057c0.229,0.075,0.229,0.532,0.075,0.666l-0.495,0.096c-0.343,0.076-0.705,0.19-0.914,0.457
		c-0.286,0.362-0.763,1.05-1.678,2.707l-1.2,2.172c-0.495,0.896-0.686,1.373-0.686,2.459V154.773L364.854,154.773z"/>
	<path fill="#003D79" d="M375.964,157.823c-1.753,0-2.839-0.498-3.239-0.726c-0.362-0.42-0.61-1.791-0.61-3.088
		c0.134-0.246,0.572-0.267,0.725-0.058c0.381,1.239,1.658,2.994,3.277,2.994c1.41,0,2.059-0.974,2.059-1.925
		c0-1.545-1.448-2.459-2.592-3.032c-1.372-0.685-2.858-1.828-2.878-3.713c0-2.156,1.658-3.642,4.421-3.642
		c0.629,0,1.41,0.075,2.173,0.305c0.248,0.076,0.419,0.115,0.648,0.152c0.152,0.42,0.343,1.448,0.343,2.728
		c-0.096,0.227-0.572,0.245-0.743,0.055c-0.324-0.971-1.144-2.362-2.516-2.362c-1.258,0-1.943,0.817-1.943,1.771
		c0,0.877,0.781,1.678,1.733,2.174l1.257,0.666c1.183,0.629,2.688,1.735,2.688,3.83
		C380.767,156.297,378.842,157.823,375.964,157.823L375.964,157.823z"/>
	<path fill="#003D79" d="M389.036,146.368c0-0.457,0-0.552-0.458-0.552h-1.181c-1.391,0-1.791,0.761-2.362,2.154
		c-0.229,0.112-0.591,0.075-0.705-0.172c0.399-1.313,0.495-2.496,0.629-3.24c0.076-0.058,0.171-0.097,0.267-0.097
		c0.095,0,0.19,0.021,0.267,0.076c0.096,0.326,0.152,0.401,1.601,0.401h7.089c1.258,0,1.544-0.021,1.715-0.418
		c0.076-0.039,0.134-0.06,0.248-0.06s0.248,0.076,0.286,0.136c-0.19,0.646-0.324,2.19-0.286,3.276
		c-0.095,0.172-0.609,0.209-0.705,0.058c-0.324-1.22-0.591-2.115-2.02-2.115h-1.144c-0.457,0-0.515,0.056-0.515,0.552v8.405
		c0,1.771,0.114,1.904,0.972,2.039l0.762,0.095c0.134,0.114,0.134,0.551,0,0.666c-1.238-0.039-2.19-0.056-3.048-0.056
		c-0.915,0-1.906,0.017-3.24,0.056c-0.152-0.115-0.152-0.552,0-0.666l0.857-0.095c0.857-0.135,0.972-0.269,0.972-2.039V146.368
		L389.036,146.368z"/>
	<path fill="#003D79" d="M404.225,149.895c0,0.533,0.019,0.572,0.533,0.572h1.315c0.99,0,1.2-0.136,1.41-1.05l0.094-0.475
		c0.135-0.154,0.611-0.154,0.706,0.018c-0.039,0.611-0.057,1.296-0.057,2.021c0,0.724,0.018,1.41,0.057,2.019
		c-0.095,0.172-0.571,0.193-0.706,0.021l-0.094-0.478c-0.21-0.914-0.42-1.065-1.41-1.065h-1.315c-0.515,0-0.533,0.019-0.533,0.591
		v2.266c0,0.877,0.076,1.488,0.305,1.812c0.248,0.345,0.61,0.496,2.001,0.496c1.658,0,2.306-0.058,3.354-2.211
		c0.152-0.209,0.629-0.134,0.705,0.097c-0.076,0.989-0.533,2.534-0.8,3.047c-0.496-0.019-1.22-0.039-2.001-0.039
		c-0.763-0.017-1.62-0.017-2.401-0.017h-2.478c-0.915,0-1.848,0.017-3.277,0.056c-0.152-0.115-0.152-0.572,0-0.666l0.896-0.134
		c0.857-0.114,0.972-0.247,0.972-2v-7.11c0-1.731-0.114-1.867-0.972-2.019l-0.477-0.096c-0.171-0.113-0.152-0.552,0.038-0.666
		c0.458,0.021,0.915,0.036,1.372,0.036c0.458,0.021,0.915,0.021,1.372,0.021h4.04c1.22,0,2.306-0.021,2.554-0.057
		c0.02,0.305,0.151,1.678,0.248,2.952c-0.076,0.211-0.515,0.248-0.705,0.076c-0.21-0.666-0.477-1.237-0.726-1.504
		c-0.361-0.363-0.933-0.591-1.866-0.591h-1.524c-0.629,0-0.629,0.039-0.629,0.744V149.895L404.225,149.895z"/>
	<path fill="#003D79" d="M414.134,145.549c-0.152-0.152-0.152-0.609,0.057-0.666c0.648,0.036,1.468,0.057,2.401,0.057
		c0.629,0,1.182,0,1.867-0.057c0,1.182,0.667,2.344,1.506,4.135l1.258,2.687c0.19,0.381,0.762,1.467,1.029,1.944
		c0.247-0.456,0.553-1.049,1.066-2.172l0.973-2.096c0.934-1.964,1.334-2.859,1.753-4.498c0.877,0.075,1.467,0.057,2.039,0.057
		c0.629,0,1.505-0.021,2.191-0.057c0.21,0.114,0.21,0.478,0.058,0.666l-0.553,0.096c-0.781,0.151-1.163,0.363-1.163,1.373
		c0,3.927,0.038,5.981,0.152,8.386c0.038,0.877,0.114,1.313,0.858,1.426l0.609,0.078c0.152,0.153,0.152,0.59-0.038,0.666
		c-0.877-0.039-1.696-0.056-2.63-0.056c-0.857,0-1.906,0.017-2.82,0.056c-0.229-0.095-0.248-0.533-0.058-0.666l0.572-0.078
		c0.876-0.17,0.876-0.34,0.876-1.504l-0.038-4.955v-2.172h-0.038c-1.41,3.049-2.935,6.231-4.193,9.453
		c-0.094,0.075-0.228,0.131-0.38,0.131c-0.171,0-0.381-0.037-0.495-0.113c-0.743-2.362-3.011-6.993-4.078-9.471h-0.038
		c-0.076,1.239-0.114,1.981-0.134,2.973c-0.019,1.238-0.038,3.146-0.038,4.287c0,0.953,0.114,1.201,0.877,1.334l0.743,0.115
		c0.152,0.133,0.114,0.571-0.038,0.666c-0.705-0.039-1.524-0.056-2.249-0.056c-0.609,0-1.391,0.017-2.153,0.056
		c-0.247-0.076-0.247-0.572-0.076-0.666l0.343-0.058c0.973-0.19,1.029-0.285,1.144-1.467c0.096-0.935,0.19-2.593,0.305-4.402
		c0.076-1.278,0.134-2.821,0.134-3.851c0-1.086-0.419-1.334-1.182-1.506L414.134,145.549L414.134,145.549z"/>
	<path fill="#003D79" d="M437.935,157.823c-1.753,0-2.839-0.498-3.239-0.726c-0.362-0.42-0.609-1.791-0.609-3.088
		c0.133-0.246,0.571-0.267,0.724-0.058c0.381,1.239,1.658,2.994,3.278,2.994c1.41,0,2.058-0.974,2.058-1.925
		c0-1.545-1.448-2.459-2.592-3.032c-1.372-0.685-2.858-1.828-2.877-3.713c0-2.156,1.657-3.642,4.421-3.642
		c0.629,0,1.41,0.075,2.172,0.305c0.248,0.076,0.42,0.115,0.648,0.152c0.152,0.42,0.343,1.448,0.343,2.728
		c-0.096,0.227-0.571,0.245-0.743,0.055c-0.324-0.971-1.144-2.362-2.516-2.362c-1.258,0-1.943,0.817-1.943,1.771
		c0,0.877,0.781,1.678,1.734,2.174l1.257,0.666c1.182,0.629,2.688,1.735,2.688,3.83
		C442.737,156.297,440.812,157.823,437.935,157.823L437.935,157.823z"/>
	<path fill="#003D79" d="M450.321,156.773c0,1.886-1.486,2.955-3.125,3.337c-0.343-0.039-0.419-0.478-0.21-0.613
		c0.725-0.265,1.696-0.914,1.696-1.846c0-0.839-0.629-1.107-1.105-1.24c-0.323-0.095-0.591-0.42-0.591-0.856
		c0-0.687,0.61-1.237,1.372-1.237C449.179,154.317,450.321,155.001,450.321,156.773L450.321,156.773z"/>
	<path fill="#003D79" d="M470.909,153.807c0,2.39,0.152,2.565,1.321,2.769l0.711,0.127c0.203,0.155,0.178,0.739-0.025,0.892
		c-1.372-0.052-2.617-0.076-3.812-0.076c-1.22,0-2.489,0.024-3.862,0.076c-0.203-0.152-0.203-0.736,0-0.892l0.712-0.127
		c1.169-0.203,1.321-0.379,1.321-2.769v-9.351c0-2.387-0.152-2.565-1.321-2.769l-0.712-0.127c-0.203-0.153-0.203-0.737,0-0.89
		c1.373,0.052,2.643,0.076,3.862,0.076c1.194,0,2.465-0.024,3.837-0.076c0.203,0.152,0.203,0.736,0,0.89l-0.711,0.127
		c-1.169,0.203-1.321,0.382-1.321,2.769V153.807L470.909,153.807z"/>
	<path fill="#003D79" d="M490.041,154.278c0,1.237,0,2.438,0.037,3.067c-0.132,0.228-0.667,0.437-1.123,0.437
		c-0.02,0-0.648-0.97-1.545-2.076l-4.4-5.45c-1.087-1.371-1.734-2.152-2.077-2.437c-0.096,0.188-0.096,0.512-0.096,1.217v3.699
		c0,1.543,0.076,2.971,0.286,3.485c0.171,0.399,0.609,0.517,1.105,0.608l0.533,0.078c0.152,0.153,0.114,0.551,0,0.666
		c-1.029-0.039-1.791-0.056-2.554-0.056c-0.705,0-1.41,0.017-2.134,0.056c-0.115-0.115-0.153-0.513,0-0.666l0.323-0.058
		c0.514-0.112,0.877-0.229,1.048-0.629c0.191-0.515,0.268-1.942,0.268-3.485v-4.841c0-1.049,0-1.354-0.135-1.621
		c-0.133-0.325-0.418-0.514-1.085-0.649l-0.534-0.075c-0.133-0.152-0.114-0.609,0.076-0.666c0.896,0.036,1.849,0.057,2.63,0.057
		c0.648,0,1.201-0.021,1.601-0.057c0.191,0.856,1.43,2.307,3.145,4.346l1.601,1.886c0.858,0.991,1.392,1.657,1.83,2.096
		c0.076-0.19,0.076-0.514,0.076-0.856v-2.631c0-1.543-0.076-2.974-0.286-3.485c-0.172-0.402-0.591-0.517-1.105-0.613l-0.515-0.075
		c-0.152-0.152-0.114-0.552,0-0.666c1.029,0.036,1.772,0.057,2.554,0.057c0.705,0,1.392-0.021,2.135-0.057
		c0.114,0.114,0.152,0.514,0,0.666l-0.343,0.059c-0.496,0.113-0.858,0.228-1.029,0.63c-0.21,0.512-0.286,1.942-0.286,3.485V154.278
		L490.041,154.278z"/>
	<path fill="#003D79" d="M507.001,145.131c0,0.342,0.058,1.866,0.229,2.973c-0.076,0.228-0.591,0.304-0.724,0.134
		c-0.515-1.773-1.734-2.726-3.583-2.726c-2.115,0-4.383,1.812-4.383,5.603c0,3.793,2.191,5.832,4.479,5.832
		c2.306,0,3.373-1.66,3.888-2.955c0.152-0.151,0.609-0.095,0.724,0.133c-0.135,1.41-0.457,2.554-0.724,2.992
		c-1.029,0.287-2.383,0.707-3.87,0.707c-1.866,0-3.771-0.44-5.126-1.451c-1.372-1.047-2.419-2.629-2.419-4.991
		c0-2.324,0.991-3.964,2.306-5.052c1.354-1.123,3.297-1.694,5.278-1.694C505.02,144.635,506.43,145.092,507.001,145.131
		L507.001,145.131z"/>
	<path fill="#003D79" d="M511.65,156.239c0-0.896,0.687-1.582,1.544-1.582c0.915,0,1.544,0.762,1.544,1.582
		c0,0.877-0.629,1.543-1.544,1.543C512.433,157.782,511.65,157.174,511.65,156.239L511.65,156.239z"/>
	<path fill="#003D79" d="M244.304,61.58h-2.312c-0.59-1.638-1.607-3.296-3.05-4.974c-1.444-1.678-2.876-2.669-4.299-2.973
		c-0.61-0.142-1.459-0.228-2.547-0.258s-1.987-0.045-2.698-0.045h-6.281v16.688h4.449c1.117,0,2.134-0.132,3.048-0.396
		c0.914-0.264,1.748-0.772,2.5-1.524c0.466-0.467,0.939-1.291,1.417-2.469c0.477-1.179,0.787-2.205,0.929-3.079h2.313v18.062h-2.313
		c-0.122-0.854-0.432-1.928-0.929-3.22c-0.498-1.292-0.971-2.182-1.417-2.67c-0.671-0.732-1.464-1.236-2.378-1.51
		c-0.914-0.274-1.971-0.412-3.17-0.412h-4.449V85.26c0,1.3,0.095,2.331,0.289,3.092c0.193,0.762,0.554,1.346,1.084,1.752
		c0.508,0.386,1.205,0.64,2.089,0.762c0.885,0.122,2.09,0.183,3.617,0.183c0.712,0,1.566-0.01,2.563-0.031
		c0.996-0.02,1.871-0.082,2.624-0.183c0.855-0.101,1.653-0.252,2.396-0.455c0.742-0.203,1.297-0.498,1.663-0.884
		c0.975-0.995,2.074-2.512,3.295-4.552c1.22-2.04,2.024-3.567,2.411-4.583h2.219l-0.825,13.469h-40.613v-2.375
		c0.569-0.041,1.342-0.123,2.317-0.244c0.976-0.123,1.667-0.265,2.075-0.427c0.772-0.326,1.291-0.737,1.555-1.236
		c0.264-0.498,0.397-1.134,0.397-1.907V57.103c0-0.732-0.112-1.337-0.336-1.815c-0.224-0.478-0.763-0.91-1.616-1.296
		c-0.53-0.244-1.272-0.468-2.227-0.671c-0.956-0.203-1.678-0.335-2.165-0.396v-2.375h38.375V61.58L244.304,61.58z"/>
	<path fill="#003D79" d="M279.258,61.66c0-2.889-0.807-4.999-2.42-6.332c-1.613-1.332-3.912-1.999-6.895-1.999h-2.404v18.125h2.313
		c2.982,0,5.296-0.783,6.939-2.35S279.258,65.057,279.258,61.66L279.258,61.66z M300.039,93.83h-16.604
		c-2.865-4.388-5.247-7.881-7.147-10.481c-1.898-2.6-4.26-5.606-7.084-9.019h-1.665v13.133c0,0.731,0.137,1.351,0.411,1.859
		c0.273,0.508,0.796,0.935,1.567,1.28c0.386,0.162,0.989,0.33,1.812,0.501c0.822,0.174,1.527,0.291,2.116,0.352v2.375h-23.094
		v-2.375c0.589-0.061,1.367-0.148,2.333-0.26s1.651-0.25,2.059-0.412c0.772-0.326,1.291-0.737,1.555-1.236
		c0.264-0.498,0.397-1.134,0.397-1.907V57.103c0-0.732-0.113-1.342-0.336-1.831c-0.224-0.488-0.763-0.915-1.616-1.281
		c-0.651-0.264-1.418-0.488-2.303-0.671c-0.885-0.183-1.581-0.315-2.089-0.397v-2.375h24.28c5.43,0,9.553,0.85,12.369,2.549
		s4.226,4.269,4.226,7.708c0,3.033-0.87,5.47-2.609,7.312s-4.388,3.282-7.947,4.32c1.383,1.788,2.993,3.861,4.834,6.218
		s3.757,4.765,5.75,7.223c0.631,0.792,1.49,1.763,2.578,2.911s2.048,1.854,2.882,2.119c0.468,0.142,1.062,0.263,1.784,0.365
		s1.235,0.162,1.541,0.184V93.83L300.039,93.83z"/>
	<path fill="#003D79" d="M320.812,95.018c-2.644,0-5.11-0.33-7.397-0.99c-2.288-0.66-4.225-1.438-5.811-2.334l-2.105,2.137h-2.594
		l-0.406-15.657h2.625c0.59,1.487,1.343,3.056,2.259,4.706c0.915,1.65,1.974,3.127,3.174,4.431c1.241,1.365,2.63,2.475,4.166,3.331
		c1.536,0.856,3.332,1.284,5.388,1.284c2.767,0,4.888-0.678,6.363-2.029c1.476-1.353,2.213-3.057,2.213-5.112
		c0-1.688-0.626-3.107-1.877-4.256c-1.252-1.149-3.19-2.143-5.815-2.979c-1.71-0.551-3.282-1.062-4.717-1.531
		s-2.783-0.949-4.045-1.439c-2.91-1.16-5.072-2.819-6.487-4.976c-1.414-2.157-2.121-4.569-2.121-7.235
		c0-1.689,0.366-3.312,1.099-4.869c0.731-1.557,1.801-2.956,3.204-4.198c1.343-1.16,3.062-2.106,5.157-2.839
		c2.095-0.732,4.373-1.099,6.835-1.099c2.4,0,4.648,0.335,6.743,1.005c2.097,0.67,3.744,1.341,4.944,2.012l1.861-1.83h2.656
		l0.25,14.75h-2.625c-0.611-1.586-1.329-3.208-2.153-4.866c-0.825-1.658-1.695-3.036-2.611-4.134
		c-0.998-1.18-2.148-2.12-3.452-2.822c-1.303-0.702-2.83-1.053-4.581-1.053c-2.199,0-3.996,0.621-5.391,1.862
		c-1.396,1.241-2.093,2.777-2.093,4.608c0,1.729,0.605,3.144,1.817,4.242c1.21,1.099,3.099,2.065,5.664,2.899
		c1.506,0.509,3.043,1.019,4.61,1.527s2.961,0.998,4.183,1.465c2.951,1.141,5.195,2.713,6.732,4.719s2.306,4.494,2.306,7.467
		c0,1.873-0.438,3.685-1.312,5.436c-0.875,1.751-2.054,3.207-3.538,4.366c-1.627,1.283-3.509,2.271-5.645,2.963
		C326.151,94.67,323.66,95.018,320.812,95.018L320.812,95.018z"/>
</g>
</svg>
